# xmcd
#
# Track frame offsets:
#	150
#	15365
#	24961
#	37632
#	50428
#	62357
#	78483
#	90385
#	103777
#	118360
#	133929
#
# Disc length: 2001 seconds
#
# Revision: 1
# Processed by: cddbd v1.5.2PL0 Copyright (c) Steve Scherf et al.
# Submitted via: audiograbber 1.83.01
#
DISCID=7d07cf0b
DTITLE=Hillcrest - Hillcrest Pure Country 15
DYEAR=1900
DGENRE=
TTITLE0=Holy Karumba  - Danny Mack
TTITLE1=My My My  - Sherry Kennedy
TTITLE2=Bless This House  - David Maclachlan
TTITLE3=Without Love - Desi Kay
TTITLE4=Hillbilly Saturday Night  - Faron Brown Jr
TTITLE5=On Her Own  - Double Vision
TTITLE6=Mama Precticed What She Preched  - Brad Kepler
TTITLE7=Half A Heart  - Cori Chandler 
TTITLE8=Go Away  - Rob Hess
TTITLE9=The Time Had Come - Ren Lehman and Marie Ostler
TTITLE10=Happy Hour  - Garprick
EXTD=
EXTT0=
EXTT1=
EXTT2=
EXTT3=
EXTT4=
EXTT5=
EXTT6=
EXTT7=
EXTT8=
EXTT9=
EXTT10=
PLAYORDER=
